<svg xmlns="http://www.w3.org/2000/svg" width="56.518" height="56.529" viewBox="0 0 56.518 56.529">
  <path id="Path_15" data-name="Path 15" d="M56.823,16.62a20.656,20.656,0,0,0-1.314-6.858,14.481,14.481,0,0,0-8.271-8.271A20.709,20.709,0,0,0,40.38.177C37.354.033,36.393,0,28.719,0s-8.636.033-11.65.166A20.662,20.662,0,0,0,10.211,1.48,13.793,13.793,0,0,0,5.2,4.749a13.918,13.918,0,0,0-3.258,5A20.711,20.711,0,0,0,.625,16.608C.482,19.635.449,20.6.449,28.27s.033,8.636.166,11.65a20.655,20.655,0,0,0,1.314,6.858A14.478,14.478,0,0,0,10.2,55.049a20.712,20.712,0,0,0,6.858,1.314c3.014.133,3.975.166,11.65.166s8.636-.033,11.65-.166a20.651,20.651,0,0,0,6.857-1.314,14.459,14.459,0,0,0,8.271-8.271A20.725,20.725,0,0,0,56.8,39.92c.132-3.015.166-3.975.166-11.65s-.011-8.636-.144-11.65ZM51.732,39.7a15.494,15.494,0,0,1-.972,5.245,9.377,9.377,0,0,1-5.367,5.367,15.549,15.549,0,0,1-5.245.971c-2.982.133-3.876.166-11.418.166s-8.448-.033-11.419-.166a15.486,15.486,0,0,1-5.245-.971A8.7,8.7,0,0,1,8.819,48.2,8.789,8.789,0,0,1,6.71,44.956a15.552,15.552,0,0,1-.971-5.245c-.133-2.982-.166-3.876-.166-11.419s.033-8.448.166-11.418a15.486,15.486,0,0,1,.971-5.245A8.592,8.592,0,0,1,8.831,8.382a8.775,8.775,0,0,1,3.246-2.109A15.56,15.56,0,0,1,17.322,5.3c2.982-.132,3.876-.166,11.418-.166s8.448.033,11.419.166a15.494,15.494,0,0,1,5.245.972,8.692,8.692,0,0,1,3.246,2.109,8.787,8.787,0,0,1,2.109,3.247,15.557,15.557,0,0,1,.972,5.245c.132,2.982.166,3.876.166,11.418s-.033,8.426-.166,11.407Zm0,0" transform="translate(-0.449 0)" fill="#fff"/>
</svg>
