<svg xmlns="http://www.w3.org/2000/svg" xmlns:xlink="http://www.w3.org/1999/xlink" width="106.501" height="110" viewBox="0 0 106.501 110">
  <defs>
    <linearGradient id="linear-gradient" x1="7.379" y1="4.174" x2="7.381" y2="4.174" gradientUnits="objectBoundingBox">
      <stop offset="0" stop-color="#f7931e"/>
      <stop offset="1" stop-color="#f15a24"/>
    </linearGradient>
    <clipPath id="clip-path">
      <path id="Path_2" data-name="Path 2" d="M-2622.111,1624.8a4.211,4.211,0,0,0,4.211,4.211,4.21,4.21,0,0,0,4.21-4.211,4.21,4.21,0,0,0-4.21-4.21,4.21,4.21,0,0,0-4.211,4.21" transform="translate(2622.111 -1620.585)" fill="none"/>
    </clipPath>
    <linearGradient id="linear-gradient-2" x1="37.038" y1="5.35" x2="37.052" y2="5.35" xlink:href="#linear-gradient"/>
    <clipPath id="clip-path-2">
      <path id="Path_3" data-name="Path 3" d="M-2676.462,1545.386a4.21,4.21,0,0,0,4.211,4.21,4.21,4.21,0,0,0,4.21-4.21,4.21,4.21,0,0,0-4.21-4.21,4.21,4.21,0,0,0-4.211,4.21" transform="translate(2676.462 -1541.176)" fill="none"/>
    </clipPath>
    <linearGradient id="linear-gradient-3" x1="37.791" y1="6.451" x2="37.804" y2="6.451" xlink:href="#linear-gradient"/>
    <clipPath id="clip-path-3">
      <path id="Path_4" data-name="Path 4" d="M-2567.76,1545.386a4.21,4.21,0,0,0,4.211,4.21,4.21,4.21,0,0,0,4.21-4.21,4.21,4.21,0,0,0-4.21-4.21,4.21,4.21,0,0,0-4.211,4.21" transform="translate(2567.76 -1541.176)" fill="none"/>
    </clipPath>
    <linearGradient id="linear-gradient-4" x1="35.505" y1="7.049" x2="35.518" y2="7.049" xlink:href="#linear-gradient"/>
    <clipPath id="clip-path-4">
      <path id="Path_5" data-name="Path 5" d="M-2724.495,1459.41a4.21,4.21,0,0,0,4.21,4.21,4.21,4.21,0,0,0,4.211-4.21,4.21,4.21,0,0,0-4.211-4.21,4.21,4.21,0,0,0-4.21,4.21" transform="translate(2724.495 -1455.2)" fill="none"/>
    </clipPath>
    <linearGradient id="linear-gradient-5" x1="38.457" y1="7.643" x2="38.471" y2="7.643" xlink:href="#linear-gradient"/>
    <clipPath id="clip-path-5">
      <path id="Path_6" data-name="Path 6" d="M-2519.727,1459.41a4.21,4.21,0,0,0,4.21,4.21,4.21,4.21,0,0,0,4.21-4.21,4.21,4.21,0,0,0-4.21-4.21,4.21,4.21,0,0,0-4.21,4.21" transform="translate(2519.727 -1455.2)" fill="none"/>
    </clipPath>
    <linearGradient id="linear-gradient-6" x1="34.838" y1="8.241" x2="34.852" y2="8.241" xlink:href="#linear-gradient"/>
    <clipPath id="clip-path-6">
      <path id="Path_7" data-name="Path 7" d="M-2622.786,1459.41a4.21,4.21,0,0,0,4.21,4.21,4.211,4.211,0,0,0,4.211-4.21,4.211,4.211,0,0,0-4.211-4.21,4.21,4.21,0,0,0-4.21,4.21" transform="translate(2622.786 -1455.2)" fill="none"/>
    </clipPath>
    <linearGradient id="linear-gradient-7" x1="35.668" y1="7.461" x2="35.682" y2="7.461" xlink:href="#linear-gradient"/>
    <clipPath id="clip-path-7">
      <path id="Path_8" data-name="Path 8" d="M-2995.18,1104.854a.227.227,0,0,1-.059.017.2.2,0,0,1-.085-.041.184.184,0,0,0-.073-.039c-.053-.006-.082.02-.088.077a.827.827,0,0,0,.055.241.034.034,0,0,1-.022-.014c-.031,0-.048.025-.055.086a1.175,1.175,0,0,0,.016.119,1.747,1.747,0,0,1,.021.188l-.064.068-.023.215-.062.148a.755.755,0,0,1,.045.332l-.049.023a1.742,1.742,0,0,1-.087.252.633.633,0,0,0-.052.2l-.029.6-.079.049-.214.94.021.123-.041.6.125.392.266.246.11-.069.187.02.053-.063c.023-.005.08-.011.171-.019a.586.586,0,0,0,.227-.059c.014-.018.067-.073.161-.166a.333.333,0,0,0,.269-.1l.079.009a1.073,1.073,0,0,1,.221-.189l.139-.123.147-.036a.568.568,0,0,0,.2-.272l.164-.029.06-.137.116-.068.035-.111a.43.43,0,0,0-.038-.079l-.219-.035-.037.139-.258.1-.029.06-.051-.005.015.128-.132,0-.079.1a.2.2,0,0,0-.174.073.7.7,0,0,0-.306.123l-.123.021-.077.084-.02-.037-.087.071a.527.527,0,0,0-.207.064l-.173.062-.131-.071-.123.021-.094-.079.018-.061a1.239,1.239,0,0,1-.041-.532l.05-.264-.005-.161.1-.178.03-.278.1-.379,0-.058.186-.462-.021-.134.05-.144a.284.284,0,0,0,.132-.21l-.077-.2.2-.73.115-.12-.119-.07c0-.13,0-.2-.008-.222s-.028-.029-.074-.034h-.012c-.046,0-.071.03-.078.089m5.375-1.39-.075.309c0,.046.039.076.115.089l-.021.1.1.141-.015.456a.149.149,0,0,1,.094.124.385.385,0,0,1-.022.086l-.09.07.083.2,0,.268-.019.268-.49.008-.189-.054-.131.025-.171-.02-.044.1.081.056-.008.177c0,.1.048.153.139.151h.1l.191.134.181-.049.132.055a.081.081,0,0,1,.068-.047c.042,0,.075.05.1.152l.006.422-.05.035.025.114-.019.222.053.153-.026.137.053.107-.118.093.049.21-.043.132.1.112-.048.212.106.523.219.555.14.151.2.276.426.238.125,0,.235.042a.867.867,0,0,0,.409-.109l.138.078.13-.082.387-.052.18-.157.085.033q.147-.105.145-.19a.222.222,0,0,0-.082-.147l-.155-.02-.4.194-.166-.049-.568.14-.435-.073-.157-.163-.211-.042-.036-.1a.5.5,0,0,1-.24-.378v-.051l-.141-.288,0-.211-.038-.234-.02-.49.028-.439-.029-.342.025-.57.112-.122.165-.025c.031.03.054.045.069.044s.045-.023.056-.069a1.859,1.859,0,0,1,.343.04l.032-.1h.1l.2-.095V1106l.108,0,.113-.11.222.036a.9.9,0,0,0,.432-.127l.313-.017.166.031a.229.229,0,0,1,.147-.059.179.179,0,0,1,.1.021c.125-.025.187-.077.185-.157s-.042-.1-.121-.1l-.422.007-.079.013-.188-.008-.769.047-.8-.021-.141.1-.211,0-.1-.289.067-.1-.047-.068.04-.354-.073-.29.1-.167-.014-.125.01-.1a.124.124,0,0,1-.036-.091.479.479,0,0,1,.031-.166v-.034a.65.65,0,0,0-.084-.255l.044-.114v-.012a1.294,1.294,0,0,0-.351-.194.91.91,0,0,1-.105.161m6.03-1.082.027.03-.1.207a2.2,2.2,0,0,1,.262.443l.114.357.063.1.037.231.181.456.017.1-.073.012.1.185.082.437-.022.084.066.047.027.388.044.062-.021.09.061.164-.031.172.014.413.041.074-.056.044.033.139,0,.191.078.992-.053.031.074.4,0,.236.063.18.124.633.163.372.043.057.073-.011.06.013a2.173,2.173,0,0,1,.21-.38l.133-.362.043-.232.046-.007-.029-.324.205-.269,0-.306.1-.125a.634.634,0,0,1,.048-.2l.139-.253.054-.418a.53.53,0,0,1,.073-.237l.1-.138.018-.107.079-.013-.009-.056.212-.518.124-.055.248-.512.183-.116a.526.526,0,0,0,.1-.091l.177-.225.2.049.022.141.171.423-.02.159.143.352.076.553.069.427-.034.115.08.172,0,.167.029.186-.024.142.089.269-.05.2a.553.553,0,0,1,.167.285,1.382,1.382,0,0,1,.02.193l.017.107.135.342c.072.185.164.268.277.25a.232.232,0,0,0,.211-.305.75.75,0,0,0-.035-.144l-.1-.03-.022-.141-.135-.123a.78.78,0,0,0-.123-.333v-.294l-.061-.238-.046-.287v-.156l-.135-.844-.063-.105-.052-.477-.143-.9a1.234,1.234,0,0,1-.248-.359l-.114-.068a.092.092,0,0,0-.1-.088c-.091-.09-.161-.13-.21-.123a1.065,1.065,0,0,0-.266.175l.03.041a.558.558,0,0,1-.088.034.259.259,0,0,0-.119.08l-.089.026-.019.1-.073.046a.457.457,0,0,1-.071.248l-.03-.041-.123.135q.035.22-.1.241l-.034.006,0,.1,0-.023c0-.015-.008-.022-.015-.02a.315.315,0,0,0-.088.071l.012.073-.079.012.026.088-.079.013.013.154-.093.038.009.056-.03.028c.02.124-.02.2-.119.232l.007.045a.151.151,0,0,1-.067.155l-.15.26-.028-.03-.068.08.039.028.013.154a.625.625,0,0,0-.083.2l-.027.154a1.161,1.161,0,0,1-.125.3.238.238,0,0,1-.147.271l-.043.278-.121.4-.022.154-.093.1a.617.617,0,0,0-.1-.267l.064-.177c-.005-.034-.057-.093-.155-.177l.06-.35-.039-.386.012-.071-.067-.133.036-.133-.018-.436.037-.063-.04-.1-.09-.707-.058-.071.033-.3-.079-.281.015-.193-.046-.218.026-.131-.115-.282-.1-.573-.037-.3-.12-.067.057-.113-.105-.2.012-.106a.727.727,0,0,1-.171-.169l-.067-.128-.186-.12c-.013-.081-.054-.122-.124-.122l-.034,0m-22.015.007-.16,0,.051.4.068.054a.315.315,0,0,0-.035.085.475.475,0,0,0,.018.232.715.715,0,0,1,.033.218l-.017.149.027.361-.007.116-.083.22.077.239.027.361-.029.11.025.343-.042.113.053.109-.043.4.015.559-.009.08-.04.149.041.218-.026.318.054.15-.015.055a.227.227,0,0,1,.095.108.56.56,0,0,1,.175-.012.153.153,0,0,1,.063.029l-.01-.05.21-.3.122-.121.04-.149a3.711,3.711,0,0,1,.285-.36l.063-.125.353-.283.187-.3.256-.185.365-.327.237-.114.311-.306a.234.234,0,0,1,.106,0,.11.11,0,0,1,.071.043l.146.73.144.983.048.107.045.449-.03.11.1.429.018.571a1.619,1.619,0,0,0,.207.174,1.339,1.339,0,0,0,.22-.337l.522-.585.3-.391.263-.278.107-.154.467-.441.307-.33.3-.4.155-.136.123-.239.2-.136.289-.53.019-.113.076-.151-.1-.18.009-.121c-.088-.036-.132-.071-.131-.106l-.1-.074q-.107.007-.152.172a2.463,2.463,0,0,0-.041.68l-.23.328-.22.183-.007.116a.883.883,0,0,0-.268.318l-.294.328-.108.048-.015.055-.056-.015-.048.182c-.027.1-.132.179-.318.239l-.052.193-.17.037-.143.227-.168.078-.56.658-.192-.1-.126-.9-.075-.2.031-.2-.052-.533-.058-.092.026-.1-.105-.418.038-.143-.01-.292.061-.119a.907.907,0,0,1-.045-.225l.026-.252a2.678,2.678,0,0,0-.136-.3l-.188-.027a.581.581,0,0,0-.129.219.514.514,0,0,0,.06.37l-.127-.034-.025.052-.056.032.029.067-.11.018-.045.077-.054-.039-.009.163-.105.084-.02.16a.062.062,0,0,0-.041-.023.213.213,0,0,0-.127.031c.01-.033,0-.052-.014-.057s-.038.008-.058.038l-.015.055,0,.1c-.052.018-.081.039-.088.065a.03.03,0,0,0,.008.026c.007.009.007.017,0,.023a.025.025,0,0,1-.023.006l-.03-.02a.081.081,0,0,0-.112.064.339.339,0,0,0,0,.146.339.339,0,0,1-.145-.1.206.206,0,0,1-.1.126.493.493,0,0,0-.135.217c-.015.059-.075.1-.177.135-.036.136-.084.2-.143.18l-.788.8-.1-.027,0-.16-.089-.13a2.5,2.5,0,0,0,.025-.489l.063-.237-.071-.155.063-.538-.046-.425.036-.4.059-.132,0-.578.065-.154-.066-.26.065-.112,0-.125.055-.115-.043-.059.007-.2-.116-.031-.038-.122-.163-.008h0c-.025,0-.049.031-.074.092m11.41-.225-.024.118-.068-.007c-.02.044-.045.064-.075.061l-.1.144-.094.024-.067.084-.087.014-.017.164-.181-.019.034.107-.045,0-.037.082-.022-.014-.06.028,0,.045c0,.008-.032.021-.094.039s-.121.12-.178.3l-.279.091,0,.143.063.052a1.271,1.271,0,0,1,.279-.194l.136-.043.164-.195.287-.056.093-.116.352-.341a.183.183,0,0,0,.06.029c.026,0,.059-.017.1-.058l.114-.1.007-.074a.425.425,0,0,0,.219-.172.456.456,0,0,0-.3-.353.4.4,0,0,1-.167.217m31.627-3.31q-.122.06-.083.142a.085.085,0,0,0,.109.042l.112-.2a.134.134,0,0,0-.046-.008.213.213,0,0,0-.093.024m-51.96-.477a.942.942,0,0,1,.314.085.124.124,0,0,1,.155-.028l.048.054a.654.654,0,0,0,.115.041l.161.187a1.333,1.333,0,0,1-.1.335.494.494,0,0,1-.1.129,2.5,2.5,0,0,1-.3.179l-.1.1a.38.38,0,0,1-.205.045l-.029.049a.4.4,0,0,1-.323-.024l-.113.079-.069-.041-.146.08-.129-.05a.143.143,0,0,1-.129,0,.315.315,0,0,1-.067-.066l-.064.041a.979.979,0,0,0-.382-.046l-.138-.147.015-.1-.046-.079a2.41,2.41,0,0,0,.542-.316.275.275,0,0,1,.13-.1l.111-.021.3-.187.125-.045a.444.444,0,0,0,.112-.05l.041-.035.04-.033a.122.122,0,0,1,.036-.022l.033-.01a.072.072,0,0,1,.03,0,.085.085,0,0,1,.03.011.1.1,0,0,1,.034.033Zm.332-.374a.244.244,0,0,1-.078-.059.759.759,0,0,1-.406.072.456.456,0,0,0-.19.087l-.073-.01-.107.07-.049-.029a.281.281,0,0,1-.212.147,2.18,2.18,0,0,0-.492.332.177.177,0,0,0-.15.077.245.245,0,0,0-.03.075,1.227,1.227,0,0,1-.215-.073.188.188,0,0,1-.081-.166.877.877,0,0,0-.154.194l-.127.329a.5.5,0,0,1-.152.1l.031.15-.132.022c-.05.116-.086.207-.108.274a.73.73,0,0,0-.147.115.225.225,0,0,1-.134.07l-.058.144-.161.15-.124.212-.151.168-.219.328-.167.543-.046.078a.472.472,0,0,1,.033.191l-.022.126.111.184-.072.123a.511.511,0,0,0,.274.366l.03.084a.835.835,0,0,0,.139.068.354.354,0,0,0,.153.156.481.481,0,0,0,.2.049l.035.087a.286.286,0,0,1,.25.014l.063.05.058-.032.143.084.148-.051.078.059.112-.079.377-.023.134.053.232-.148.08.033a1.23,1.23,0,0,1,.3-.188.508.508,0,0,0,.189-.114.435.435,0,0,0,.024-.211.217.217,0,0,0-.141-.03.377.377,0,0,1-.445.128l-.067.047a.11.11,0,0,0-.123.007.1.1,0,0,1-.052.039,1.034,1.034,0,0,1-.3-.039l-.039.043-.093-.055-.147.072a1.319,1.319,0,0,0-.3,0l-.268-.118-.362-.239-.238-.193.035-.059a.843.843,0,0,1-.177-.289c-.041-.113-.041-.187,0-.224-.027-.038-.018-.112.025-.223a2.151,2.151,0,0,1,.085-.2l.091-.132.056-.119.083-.018.159-.4.071,0a1.287,1.287,0,0,0,.2-.232l.118-.043a.558.558,0,0,1,.369-.279.918.918,0,0,1,.184.161l.054.1.243.024.133.078.31-.023a.375.375,0,0,0,.067.066c.03.018.063.01.1-.021a3.559,3.559,0,0,0,.827-.057l.093-.136.349-.133.289-.233.075-.015.135-.3.1-.1c.119-.2.139-.366.057-.489l.056.006a.184.184,0,0,1,0-.141l-.03-.017a.236.236,0,0,1-.106-.281l-.059-.034-.027-.068-.1-.035a.139.139,0,0,0-.054-.111c-.007,0-.079-.02-.217-.048q-.13.076-.145.067m48.817-.233-.109-.093-.159.078.134.169-.072.035a.234.234,0,0,0-.068.1.172.172,0,0,0,0,.161.342.342,0,0,0,.066.082l.512.517.01.2.292.416.031.194.164.206-.021.087.165.1-.476.194-1.082.68-.046.01a.265.265,0,0,0-.082.078,2.963,2.963,0,0,0-.312.1l-.1-.016-.031.13a.483.483,0,0,0-.169.057l-.394.218-.18.087a.2.2,0,0,0-.117.007q-.062.03-.026.1l.012.026h-.247l-.22.133-.18.062-.251.174-.132.014-.22.108a3.308,3.308,0,0,0-.15-.435l.022-.138-.155-.134a7.19,7.19,0,0,0-.282-.865.379.379,0,0,0-.06-.1c-.042,0-.077-.028-.1-.083a2.52,2.52,0,0,1-.071-.327l-.132-.062-.093-.164a.659.659,0,0,1-.308-.021l-.132.21.082.3.112.231.261.38.056.271.22.374.1.078-.112,0a.955.955,0,0,1,.1.149,1.846,1.846,0,0,1,.148.575l-.163.276.168.293.232.02.111.124.13.266.463.807.1.108.073.174.106.037c-.089.086-.114.168-.077.247a1.024,1.024,0,0,0,.358.2l.263.487a.216.216,0,0,0,.285.1l.031-.04-.106-.164-.012-.1-.159-.144-.112-.281-.134-.144-.153-.5-.18-.134,0-.245-.131-.164-.094-.3-.187-.384q-.13-.267,0-.385a1.3,1.3,0,0,1,.327-.216l.1-.009-.024-.077a.6.6,0,0,0,.227-.016l.131-.044.047-.125.133.012.231-.189.244.046,0-.176.184-.039a.635.635,0,0,0,.139-.125.628.628,0,0,1,.155-.132.747.747,0,0,1,.235-.051l.041-.046.512-.173.343-.338a.472.472,0,0,1,.128-.088,1.233,1.233,0,0,1,.157-.054.543.543,0,0,0,.248-.207l.123-.009.057-.1.081.036.165-.169.131.348.317.651v.12l.112.06.055.309.2.374.169.425.088.1-.025.026.075.153.113.154.1,0-.045.1.112.111.195.4a.826.826,0,0,0,.292.232l.063.1a.27.27,0,0,0,0-.237l-.035-.046a.166.166,0,0,0,.019-.143.67.67,0,0,0-.135-.187l-.078-.07-.062-.179-.076-.052-.042-.189-.02.01-.183-.609-.257-.5.037-.081a.888.888,0,0,1-.139-.18.141.141,0,0,1-.006-.1.229.229,0,0,0-.03-.144l-.081-.024a1.46,1.46,0,0,0-.154-.483c-.025-.051-.052-.069-.083-.054l-.021.01a.6.6,0,0,0-.014-.38l-.083.04.084-.44.229.053.007-.181.353-.318.148.017.094-.185.179-.062.117-.292-.246.12-.123.086-.19.067-.34.292-.223.127-.231.164-.348-.87-.1-.159-.025-.248-.129-.121-.065-.133-.225-.226,0-.174-.092-.189-.1.1-.08-.164Zm5.972-.934a.27.27,0,0,1-.036-.157l.026-.11-.05-.351.009-.133a.456.456,0,0,0,0-.123l-.016-.052-.015-.049a.12.12,0,0,1,0-.042.189.189,0,0,1,0-.034.064.064,0,0,1,.01-.029.093.093,0,0,1,.022-.023.1.1,0,0,1,.044-.017l-.02-.085a.948.948,0,0,1,.2-.253.124.124,0,0,1,.038-.153l.068-.021a.661.661,0,0,0,.084-.089l.236-.072a1.334,1.334,0,0,1,.265.231.485.485,0,0,1,.076.145,2.368,2.368,0,0,1,.045.344l.052.131c0,.116-.018.185-.041.206l.033.046a.4.4,0,0,1-.152.286l.027.135-.064.047.014.165-.1.1a.139.139,0,0,1-.049.119.315.315,0,0,1-.087.035l.012.075a.979.979,0,0,0-.2.332l-.191.067-.09-.055-.091.01a2.456,2.456,0,0,0-.07-.624m.519-2.1a.236.236,0,0,1-.3-.015l-.055.04-.074,0-.074.082a.138.138,0,0,0-.123,0c-.007,0-.05.064-.131.179.011.1.012.153,0,.16a.26.26,0,0,1-.085.047.751.751,0,0,1-.1.4.462.462,0,0,0,0,.209l-.038.063.021.126-.047.033a.281.281,0,0,1,.049.253,2.162,2.162,0,0,0,.106.584.175.175,0,0,0,.01.169.238.238,0,0,0,.056.058,1.242,1.242,0,0,1-.154.167.189.189,0,0,1-.185.007.893.893,0,0,0,.116.219l.25.248a.5.5,0,0,1,.031.181l.15.032-.033.13c.086.093.155.162.207.209a.685.685,0,0,0,.047.181.223.223,0,0,1,.01.151l.108.111.073.208.144.2.093.207.212.332.43.371.054.074a.466.466,0,0,1,.188.047l.107.07.213-.027.083.116a.513.513,0,0,0,.446-.1l.088.006a.826.826,0,0,0,.118-.1.354.354,0,0,0,.2-.077.476.476,0,0,0,.124-.16l.094,0a.288.288,0,0,1,.113-.223l.072-.037-.006-.066.134-.1.013-.157.085-.047-.027-.135.131-.355.1-.1-.042-.272.063-.059a1.218,1.218,0,0,1-.052-.349.509.509,0,0,0-.028-.219.433.433,0,0,0-.183-.107.21.21,0,0,0-.084.117.377.377,0,0,1-.062.459l.016.08a.109.109,0,0,0-.043.116.1.1,0,0,1,.014.063,1.062,1.062,0,0,1-.156.256l.024.053-.088.063.006.164a1.277,1.277,0,0,0-.117.275l-.216.2-.365.235-.271.14-.04-.056a.834.834,0,0,1-.336.046c-.12-.007-.188-.038-.2-.092q-.067.014-.194-.113a2.019,2.019,0,0,1-.15-.159l-.084-.136-.086-.1.017-.083-.3-.305.031-.064a1.236,1.236,0,0,0-.131-.278l.009-.125a.558.558,0,0,1-.107-.45.9.9,0,0,1,.22-.1l.112-.01.12-.213.125-.09.1-.293a.367.367,0,0,0,.087-.036.081.081,0,0,0,.02-.1,3.49,3.49,0,0,0,.281-.779l-.087-.141.019-.373-.1-.359.017-.075-.218-.244-.049-.126q-.207-.287-.425-.248l.028-.049a.185.185,0,0,1-.13-.053Zm-60.947-2.183-.251.195c-.028.036-.017.083.034.142l-.081.067-.01.172-.3.347a.147.147,0,0,1,0,.155.441.441,0,0,1-.07.054h-.115l-.059.207-.164.212-.182.2-.387-.3-.114-.16-.118-.062-.121-.123-.1.053.028.094-.117.133c-.062.081-.058.15.015.205l.077.059.065.223.172.075.069.125a.081.081,0,0,1,.082.006q.049.038-.018.181l-.258.334-.062,0-.051.1-.155.162-.053.153-.106.091-.025.117h-.15l-.093.194-.116.076.007.149-.17.136-.244.474-.175.571.014.205-.013.343.184.452.1.076.157.179a.865.865,0,0,0,.387.17l.06.147.152.017.334.2.239-.01.047.079c.12.006.2-.014.232-.058a.225.225,0,0,0,.027-.166l-.108-.112-.436-.1-.1-.142-.531-.245-.295-.328-.021-.225-.139-.165.032-.1a.5.5,0,0,1,.048-.445l.031-.041.07-.314.129-.167.116-.206.291-.4.3-.326.191-.284.376-.43.164-.025.145.083a.133.133,0,0,0,.025.078c.021.016.05.01.087-.019a1.841,1.841,0,0,1,.243.245l.09-.06.081.063.214.05-.042.054.086.066.156-.016.151.168a.887.887,0,0,0,.415.17l.256.183.109.128a.226.226,0,0,1,.152.045.173.173,0,0,1,.063.077c.113.059.194.057.243-.007s.031-.106-.032-.155l-.334-.258-.069-.04-.142-.124-.63-.444-.615-.518-.176-.006-.167-.129.106-.286.117-.039.005-.082.252-.252.124-.272.182-.068.068-.106.068-.07a.124.124,0,0,1,.029-.093.494.494,0,0,1,.128-.11l.021-.027a.644.644,0,0,0,.094-.252l.106-.062.007-.009a1.305,1.305,0,0,0-.153-.37.853.853,0,0,1-.183.06m66.143-2.062a.243.243,0,0,1,.118-.05l.435-.017.175-.09.2.1.2.237,0,.145a.592.592,0,0,1,.085.211l.088.058-.014.1.07.106a.694.694,0,0,0,.028.266.1.1,0,0,1,.072.025.064.064,0,0,1,.016.049l.091.11-.058.056a.206.206,0,0,0-.031.106.26.26,0,0,0,.035.168.286.286,0,0,0,.057.238l-.053.019c.012.057.025.13.038.22a.548.548,0,0,0,.032.147.143.143,0,0,0,.056.025l-.062.092.084.054.021.186-.05.048a.355.355,0,0,1-.006.346l.094.219a.517.517,0,0,0-.06.209l-.011.169.033-.032.019.323c.021.022.024.041.008.057l-.017.016a.225.225,0,0,0,.01.157.169.169,0,0,1,.027.065l-.1.163.076.046a.281.281,0,0,0-.058.309l-.148.232a.394.394,0,0,0-.21.021l-.072-.041-.065.015-.066-.118-.2-.193-.025-.174-.229-.1-.014-.113-.1-.034a.438.438,0,0,1,.02-.218l-.144-.059a1.526,1.526,0,0,0-.185-.257l-.011-.068-.146-.152v-.064a.38.38,0,0,1-.073-.223l-.139-.144-.025-.149-.043-.045a.624.624,0,0,1-.176-.329l-.1-.034.016-.2-.1.031a3.842,3.842,0,0,0-.265-.577.965.965,0,0,1-.065-.452l-.047-.049.082-.1-.015-.049.05-.1-.048-.017a1.114,1.114,0,0,1,.2-.379l.151-.106.05-.088.076,0,.059-.128.093.014.135-.13h.081a.3.3,0,0,1,.05-.08m.56-.479-.071-.074-.22.125-.145,0-.033.048a.126.126,0,0,1-.166.018l-.025.056a.091.091,0,0,0-.145.006l-.034.031-.424.267-.031-.033-.47.383-.077.224c.037.049,0,.128-.113.236a.1.1,0,0,1,.065.017c.029.03.012.076-.05.136l-.025.024a.912.912,0,0,1,.04.279,2.155,2.155,0,0,0,.016.246.141.141,0,0,1,.052.037c.019.019.018.046,0,.081l.131.135c-.036.035-.045.06-.029.076a.178.178,0,0,0,.107.054l-.013.06.155.144a.614.614,0,0,0,.179.414l.04.041.06.283.073-.039a.464.464,0,0,1,.046.158.4.4,0,0,0,.11.215l.016.016c-.057.056-.073.1-.046.124s.064.026.113-.006c-.022.037-.024.066-.005.085s.024.008.059.007a.116.116,0,0,1,.089.04.4.4,0,0,1,.085.227l-.025.04a.424.424,0,0,0,.068.1.523.523,0,0,0,.1.074.291.291,0,0,0,.067.118.192.192,0,0,0,.063.049l.244.367.135.19a.3.3,0,0,1,.057.108l.015.072.077-.01a1.54,1.54,0,0,0,.382.264l-.027.1a.6.6,0,0,0,.672.031c.115.064.2.073.242.028l.024-.024a.477.477,0,0,1,.044-.209l.066-.112-.039-.581.08-.4-.05-.142,0-.355-.041-.174.006-.4-.091-.348.021-.093a.507.507,0,0,1-.024-.262l-.059-.061.018-.1-.1-.135.055-.132-.079-.1a.445.445,0,0,0-.02-.242l.072-.188a.232.232,0,0,0,.153,0l.063.1.162.168-.045.043.107.094-.009.073.059.094.12.026-.034.112.148.039.138.208.568.489.233.274.114-.006.178.184.286.033.034-.088.069-.011a.81.81,0,0,1,.083-.168l-.046-.1.063-.172c-.084.007-.132,0-.145-.01s0-.013.008-.024l.008-.008q-.13.03-.161,0c-.008-.008-.009-.026,0-.052l-.16-.051-.184.146-.148-.1-.052.052a.49.49,0,0,0-.1-.228.175.175,0,0,0-.063-.049l-.036-.053-.086.051a1.192,1.192,0,0,1-.211-.423.389.389,0,0,1-.185-.036l-.021-.177-.136-.075c-.063-.066-.091-.115-.082-.15l-.031-.113-.076-.029a.187.187,0,0,0-.047-.1.069.069,0,0,0-.04-.025v-.048l-.06-.013v-.048l-.2-.168-.006-.1-.092-.062-.062-.114-.064-.049-.052-.086a.058.058,0,0,0-.064-.017.467.467,0,0,1-.143-.226c-.008-.061-.013-.1-.016-.111l-.156-.055a.91.91,0,0,0-.088-.248l-.1-.171,0-.153-.272-.15v-.032l-.121.038.041-.04-.131-.135a1.666,1.666,0,0,0-.172.428m-73.584-.552a.678.678,0,0,0-.369.194l-.064.016-.362.4-.046.213-.164.37.066.4-.017.032.227.328.006.177.139.352.015.169.056.057-.017.064.085.021.039.17.084.086a.554.554,0,0,0,.159.332l.065.049a.131.131,0,0,1,.027.158l.08.081-.013.084.031.033,0,.157.053.02a.245.245,0,0,0,.031.129l-.049.08.016.17-.089.056-.017.1-.036.02-.109-.013-.065.032v-.049a1.216,1.216,0,0,1-.463-.2l-.057.008-.1-.073-.061.02-.429-.3-1.113-1-.064.016-.007-.153-.175-.243.126-.124-.064-.081a.261.261,0,0,0,.1-.048c.032-.032.032-.073,0-.125l-.116-.037.041-.04-.048-.049.024-.072-.1.016-.052.068-.2-.151q-.354.348-.114.616l-.024.072a.1.1,0,0,1,.027.093l.121.025-.017.048a.618.618,0,0,1,.148.118l.159.2a.533.533,0,0,1,.1.178.269.269,0,0,1,.1.049.53.53,0,0,1,.111.234l.1.025,0,.068.109.021.056.113a.581.581,0,0,1,.14.1l.052.053.1.049.016.065.04-.008.092.126.132.1.132.166.048-.048a.424.424,0,0,1,.129.082.369.369,0,0,1,.083.133.192.192,0,0,1,.137.042l.14.045.14.142.221-.01.109.11.041-.056.2.034a3.148,3.148,0,0,1,.36-.138l.121-.007a.37.37,0,0,0,.038-.221l.093-.028-.056-.089.017-.1.033-.016a.379.379,0,0,1,.042-.258l-.046-.234-.156-.159-.031-.113.033-.048a.673.673,0,0,1-.1-.223.524.524,0,0,0-.135-.235c-.04-.041-.044-.077-.011-.109l-.242-.465-.007-.105-.164-.215-.015-.186-.164-.167v-.242l-.052-.053-.087-.355.042-.04a.4.4,0,0,1,.1-.366l.024-.024-.016-.065.425-.251a.481.481,0,0,1,.221.022l.2-.043.221.006.068.021.072-.008a.986.986,0,0,0,.218.107l.121.017.092.093a.5.5,0,0,1,.313.115.465.465,0,0,1,.293.151l.133.021a.03.03,0,0,1,.048,0,.842.842,0,0,1,.051.246l.072.041.2.239c-.06.171-.08.268-.058.29a.09.09,0,0,0,.145,0,3.073,3.073,0,0,1,.263-.172l-.026-.174.073-.072a.2.2,0,0,0-.064-.154l-.023-.024.033-.064-.344-.4-.308-.168-.285-.2-.683-.279-.19-.014a.612.612,0,0,0-.351.042l-.048-.065c-.06.054-.17.058-.33.014m75.017-4.727a.325.325,0,0,0-.028.09c-.011.051-.024.1-.038.141l.382.372.12.05.257.245a.936.936,0,0,0,.38.226l.423.375.456.343.051.083.3.239a.481.481,0,0,1,.177.263l.222.1.114.2.162.1.329.3-.021.1a.333.333,0,0,1,.223.058q.04.032.393.366a.441.441,0,0,1,.215.068.169.169,0,0,1,.051.083l.1.1.236.171.258.216h.094l.1.093.24.145a1.107,1.107,0,0,1,.352.051l.138-.029.123.009.049-.063.038-.122c.01-.026.031-.094.061-.207a.692.692,0,0,1,.1-.235l.021-.027-.055-.087.046-.022.044-.111a.212.212,0,0,1,.022-.25q-.012-.161-.018-.213a.344.344,0,0,1,.042-.159,1.687,1.687,0,0,0-.07-.54c.059-.075.058-.194,0-.357.021-.046-.005-.1-.08-.157a.14.14,0,0,0-.131-.008.222.222,0,0,1-.025.125.054.054,0,0,1-.046.022c-.013.053-.005.09.022.111a.871.871,0,0,0,0,.229,1.43,1.43,0,0,1,.012.151l-.044.111,0,.134-.043.111.031.053-.062.06.015.084a.232.232,0,0,0-.034.227.383.383,0,0,0-.039.151l.009.21-.052.047a.853.853,0,0,0-.084.274l-.133.077-.378-.137-.062-.078-.131-.037-.121-.132-.135-.04a.423.423,0,0,0-.077-.125.44.44,0,0,0-.265-.114v-.057l-.1-.017-.246-.25-.143-.178-.158-.029,0-.077-.329-.3-.228-.106a2.3,2.3,0,0,0-.233-.3l-.135-.114-.261-.277-.121-.067a.4.4,0,0,0-.093-.131.506.506,0,0,0-.135-.048l-.126-.2a.132.132,0,0,1-.175-.007.894.894,0,0,1-.269-.377l-.126,0-.178-.263a2.031,2.031,0,0,1-.425-.253l-.071-.012c.031-.039,0-.1-.1-.187a.3.3,0,0,1-.137-.057l-.036-.028-.042-.141-.154.031-.183-.071a.114.114,0,0,0-.046.022m-78.893-1.254.091.1.05-.008.088.063.023-.045a1.119,1.119,0,0,1,.347.256l.084.165.08.062-.008.076.118.077-.026.089.11.152-.013.08a.326.326,0,0,1,.072.061.253.253,0,0,1,.033.124l-.045.433.064.186-.131.179-.262.162-.144-.023a.569.569,0,0,1-.221.054l-.07.079-.1-.028-.115.055a.69.69,0,0,0-.267-.01.1.1,0,0,1-.036.068.065.065,0,0,1-.051.008l-.122.074-.046-.065a.216.216,0,0,0-.1-.047.262.262,0,0,0-.172.011.285.285,0,0,0-.243.022l-.012-.055c-.058,0-.132.007-.223.007a.522.522,0,0,0-.152.01.141.141,0,0,0-.032.052l-.082-.074-.065.075-.187-.006-.04-.055a.355.355,0,0,1-.342-.055l-.23.061a.521.521,0,0,0-.2-.089l-.166-.035.026.037-.322-.027c-.024.018-.043.017-.057,0l-.013-.018a.226.226,0,0,0-.157-.013c-.041.015-.063.021-.068.017l-.148-.122-.056.068a.281.281,0,0,0-.3-.1l-.207-.18a.4.4,0,0,0,.009-.211l.052-.065-.006-.066.127-.049.219-.173h.176l.136-.211.113,0,.048-.09a.444.444,0,0,1,.212.05l.079-.134a1.505,1.505,0,0,0,.281-.147h.07l.17-.124.064.01a.379.379,0,0,1,.231-.04l.161-.117.152,0,.051-.037a.631.631,0,0,1,.351-.127l.047-.091.194.043-.016-.1a3.842,3.842,0,0,0,.608-.18.961.961,0,0,1,.458,0Zm-.287-.426a.142.142,0,0,1-.044.046c-.021.016-.048.011-.08-.013l-.153.11c-.028-.04-.052-.054-.071-.04a.181.181,0,0,0-.069.1l-.058-.021-.164.133a.607.607,0,0,0-.435.118l-.046.033-.289.019.028.078a.464.464,0,0,1-.162.023.4.4,0,0,0-.229.077l-.019.013c-.046-.065-.085-.086-.116-.063s-.034.06-.01.112c-.034-.027-.062-.033-.083-.017s-.012.023-.015.057a.121.121,0,0,1-.053.083.4.4,0,0,1-.237.052l-.036-.03a.4.4,0,0,0-.11.052.527.527,0,0,0-.089.092.3.3,0,0,0-.126.049.2.2,0,0,0-.058.056l-.4.189-.207.107a.3.3,0,0,1-.115.041l-.074,0v.077a1.555,1.555,0,0,0-.316.341l-.1-.041a.6.6,0,0,0-.127.661c-.079.1-.1.183-.062.235l.02.028a.475.475,0,0,1,.2.073l.1.082.581.044.386.136.148-.029.352.048.178-.016.39.063.358-.04.088.034a.506.506,0,0,1,.263.014l.069-.05.094.032.147-.079.123.073.109-.064a.444.444,0,0,0,.242.014l.177.1a.235.235,0,0,0-.024.151l-.106.049-.189.137-.037-.051-.109.093-.071-.02-.1.045-.043.115-.106-.05-.06.142-.224.107-.565.493-.3.192-.01.113-.208.15-.073.278.083.046v.07a.848.848,0,0,1,.155.106l.1-.032.161.087c0-.084.016-.131.031-.142s.014,0,.023.012l.006.009c-.008-.089,0-.141.026-.159.009-.007.027-.005.052,0l.073-.152-.118-.2.123-.131-.043-.06a.487.487,0,0,0,.24-.068.178.178,0,0,0,.058-.056l.058-.028-.039-.092a1.188,1.188,0,0,1,.449-.149.394.394,0,0,1,.061-.178l.179,0,.094-.124c.074-.054.127-.073.161-.06l.116-.014.04-.071a.187.187,0,0,0,.1-.032c.018-.013.028-.025.03-.036l.048.008.021-.058.048.008.195-.169.1.009.074-.082.122-.046.058-.056.092-.038a.059.059,0,0,0,.025-.061.467.467,0,0,1,.245-.11h.112l.077-.147a.9.9,0,0,0,.258-.052l.183-.077.153.017.187-.248.032.005-.021-.126.033.046.152-.11a1.678,1.678,0,0,0-.4-.232l.083-.06-.093-.235.023-.143-.042-.04a.125.125,0,0,1,.006-.166l-.052-.033c.052-.038.057-.086.015-.145l-.027-.037-.2-.458.037-.027-.312-.52-.212-.107q-.081.044-.218-.145a.1.1,0,0,1-.026.061q-.051.037-.128-.07l-.02-.028a.907.907,0,0,1-.281,0c-.111-.013-.188-.019-.232-.019h-.014m86.3-3.648-.219.361-.031.074-.108.155-.369.676-.446.67.014.175-.109.18-.3-.073-.052-.112-.082,0-.279-.222-.284-.092-.088-.173-.113-.055-.077-.06a.122.122,0,0,1-.1-.018.471.471,0,0,1-.124-.115l-.029-.018a.65.65,0,0,0-.26-.064l-.074-.1-.009-.006a1.274,1.274,0,0,0-.351.194.859.859,0,0,1,.08.175l.222.228c.039.024.085.007.137-.05l.076.073.172-.009.378.256a.148.148,0,0,1,.154-.013.379.379,0,0,1,.062.064l.011.114.212.035.229.139.217.158-.253.419-.146.131-.049.124-.108.135.064.092.09-.039.145.1q.132.08.2-.037l.05-.083.215-.09.055-.179.117-.083a.081.081,0,0,1,0-.082c.022-.036.082-.037.181,0l.361.219,0,.061.11.04.178.135.158.036.1.1.119.012.016.15.2.07.088.107.148-.024.154.153.5.189.587.109.2-.037.342-.026.428-.234.065-.107.16-.176a.867.867,0,0,0,.125-.4l.139-.076v-.154l.162-.355-.037-.236.073-.055c-.007-.12-.035-.194-.084-.224a.222.222,0,0,0-.168-.008l-.1.12-.048.443-.13.115-.183.556-.293.33-.222.046-.148.157-.1-.021a.5.5,0,0,1-.448,0l-.044-.026-.319-.033-.18-.109-.218-.092-.424-.244-.358-.257-.3-.158-.47-.324-.042-.159.065-.153c.042-.01.067-.022.075-.035s0-.051-.029-.084a1.813,1.813,0,0,1,.216-.268l-.071-.083.054-.088.024-.218.059.035.056-.093-.034-.154.15-.169a.893.893,0,0,0,.122-.432l.153-.274.115-.124a.228.228,0,0,1,.028-.156.173.173,0,0,1,.069-.071c.046-.119.034-.2-.034-.241a.113.113,0,0,0-.058-.018.113.113,0,0,0-.093.068m-90.559-5.835c-.051.025-.112.166-.179.424l.189.206.278.619.041.253.077-.012a.582.582,0,0,0,.071.314l.042.087.036-.018.071.118.052.133a.392.392,0,0,1,.136.136l.088.141a.134.134,0,0,1,.1.072c.034.068.009.139-.073.213l-.276.059-.282.214-.47.154-.18.164-.43.211q-.061-.046-.3.071c-.092.045-.124.1-.1.155a1.257,1.257,0,0,0-.278.015l-.164.093a.7.7,0,0,1-.128.018.505.505,0,0,0-.169.038.526.526,0,0,0-.118.109c-.041-.031-.072-.041-.092-.031a.169.169,0,0,0-.072.086.135.135,0,0,0-.123,0,.955.955,0,0,0-.114.157l-.767.3a2.448,2.448,0,0,0-.231.138,2.445,2.445,0,0,1-.241.143l-.168.057c-.2.1-.289.175-.262.23a.293.293,0,0,1,.013.066.415.415,0,0,0,.039.118,2.521,2.521,0,0,1,.22-.133.757.757,0,0,1,.235-.052c.093-.071.141-.109.146-.116s.062-.028.149-.028a.518.518,0,0,0,.16-.015.247.247,0,0,0,.058-.044.11.11,0,0,1,.079-.032.191.191,0,0,0,.078-.016.185.185,0,0,0,.051-.05l.309-.056.439-.19.272-.2.163.022.117-.057.132.011a.366.366,0,0,1,.129-.139l.086.047.179-.062.093-.147a.417.417,0,0,1,.187-.038.171.171,0,0,0,.115-.021l.092-.045.322-.12.3-.158.123-.035.078-.088.7-.292.13.006.044.092.077-.012.17.139.021.25a.994.994,0,0,0,.165.233,1.062,1.062,0,0,1,.177.259c.039.045.075.058.11.042l.021.224.152.312a1.406,1.406,0,0,0,.3.336l.051.248.375.623.024.14.109.131.155.318.085.123.138,0-.108-.22-.072-.25-.266-.517-.057-.207a.553.553,0,0,0-.095-.109.145.145,0,0,1-.053-.155l-.062-.268-.133-.2a.066.066,0,0,1-.065-.044l-.047-.161a.521.521,0,0,0-.114-.141l-.024-.051a.524.524,0,0,1-.047-.212l-.1-.251-.267-.352-.112-.021a.418.418,0,0,0,0-.359l-.138-.141a.687.687,0,0,1,.061-.328l-.063-.051.087-.081-.024-.166-.282.031-.041-.082-.268-.249-.184-.481-.22-.5-.149-.149-.215-.815-.083-.169a1.431,1.431,0,0,0-.189.042m93.478-.668-.12.061a.09.09,0,0,0-.127.039q-.186.045-.215.114a1.072,1.072,0,0,0,.008.319l.051,0a.647.647,0,0,1-.017.092.26.26,0,0,0,0,.144l-.025.088.076.069v.087a.458.458,0,0,1,.174.191l-.051,0,.05.175q.2.087.151.212l-.014.032.09.05-.021-.009c-.014-.006-.022-.006-.025,0a.308.308,0,0,0,.015.112l.069.029-.031.074.089.025-.031.073.137.071-.017.1.053.022.007.04c.116.049.16.124.135.224l.042.018a.151.151,0,0,1,.1.139l.142.264-.04.008.032.1.044-.018.137.07a.636.636,0,0,0,.129.178l.117.1a1.121,1.121,0,0,1,.191.266.237.237,0,0,1,.153.268l.213.183.276.314.119.1.037.133a.613.613,0,0,0-.28-.056l-.117-.148a.465.465,0,0,0-.232.038l-.266-.236-.349-.172-.054-.047-.148-.014-.094-.1-.379-.216-.035-.064-.109-.021-.647-.3-.091.011-.237-.187-.281-.082-.156-.115-.209-.076-.1-.091-.3-.052-.54-.215-.274-.128-.12.067-.066-.108-.223-.014-.084-.066a.739.739,0,0,1-.234.056l-.144-.011-.2.095a.123.123,0,0,0-.184.071l.04-.008.122.194a2.214,2.214,0,0,1,.515.013l.363.091h.117l.216.091.483.086.095.04-.029.068.213.009.415.162.06.063.075-.031.344.182.076,0,.066.064.171.035.13.117.358.207.085.005.007.071.135.045.16.1.883.459v.061l.377.147.2.122.187.042.6.229.4.058.071-.007.029-.068.043-.044a2.139,2.139,0,0,1-.211-.38l-.237-.3-.174-.16.017-.042-.29-.147-.12-.317-.259-.164-.056-.147a.636.636,0,0,1-.147-.149l-.141-.251-.327-.268a.524.524,0,0,1-.163-.186l-.062-.162-.081-.071.031-.073-.053-.022-.328-.454.02-.134-.3-.481v-.217a.512.512,0,0,0-.024-.134l-.1-.27.147-.142.131.055.449.078.124.1.375.065.511.228.4.168.08.089.188.024.141.091.174.073.108.1.275.066.142.147a.558.558,0,0,1,.33.009,1.4,1.4,0,0,1,.174.086l.1.042.361.066c.2.037.314,0,.359-.1a.232.232,0,0,0-.147-.34.779.779,0,0,0-.141-.047l-.08.072-.132-.056-.176.05a.782.782,0,0,0-.347-.072l-.25-.155-.235-.074-.268-.113-.133-.081-.788-.332-.123,0-.433-.207-.84-.354a1.231,1.231,0,0,1-.435.021m2.22-38.416q-2.09.759-1.216,3.164l.358.986q.529,1.457-.7,1.9-1.446.525-2.165-1.452a8.2,8.2,0,0,1-.517-2.759l-.911.331a10.743,10.743,0,0,0,.625,2.72q1.077,2.968,3.327,2.151,2.09-.759,1.2-3.207l-.358-.986q-.513-1.414.719-1.862,1.392-.506,2.151,1.583a7.526,7.526,0,0,1,.476,2.647l.911-.331a9.805,9.805,0,0,0-.583-2.608q-.889-2.447-2.457-2.447a2.519,2.519,0,0,0-.858.164m-102.215,1.674q-1.136,3.075,1.056,3.884,2.085.77,2.972-1.63l.363-.984q.537-1.454,1.767-1,1.444.533.715,2.506a8.187,8.187,0,0,1-1.387,2.44l.909.336a10.709,10.709,0,0,0,1.281-2.48q1.093-2.962-1.151-3.791-2.086-.771-2.988,1.673l-.364.984q-.521,1.412-1.751.957-1.391-.513-.62-2.6a7.563,7.563,0,0,1,1.346-2.328l-.909-.336a9.861,9.861,0,0,0-1.239,2.367m5.042-10.106-1.719,2.823,6.96,4.24.549-.9-6.217-3.786,1.121-1.84a1.252,1.252,0,0,1,1.924-.55q1.363.83.375,3.165l.872.277q1.327-3.188-.7-4.425a2.369,2.369,0,0,0-1.227-.395,2.364,2.364,0,0,0-1.936,1.391m88.959,3.748-1.006-1.623,5.474-3.394,1.006,1.623a2.647,2.647,0,0,1-.971,4.123,4.284,4.284,0,0,1-2.2.755,2.678,2.678,0,0,1-2.3-1.484m-2.289-2.068,1.562,2.519q2.132,3.439,5.785,1.174,3.274-2.03,1.142-5.47l-1.562-2.519Zm-82.391-7.7,6.044,5.467,3.633-4.015-.634-.574-2.925,3.234-2.114-1.912,2.734-3.022-.634-.573-2.734,3.022-2.029-1.835,2.867-3.17-.634-.573Zm75.1-.366.7.712,4.726-4.641-1.231,8.2.739.752,5.815-5.711-.7-.712-4.684,4.6,1.19-8.159-.739-.752Zm-64.594-9.479q-3.427,2.555-1.025,5.777,2.538,3.4,5.965.849a7.361,7.361,0,0,0,1.624-1.637l-.546-.731a6.061,6.061,0,0,1-1.5,1.614q-2.673,1.993-4.7-.726-1.89-2.536.782-4.529a6.074,6.074,0,0,1,1.975-.975l-.545-.731a7.349,7.349,0,0,0-2.032,1.089m55.478,3.107.918.595,6.313-4.386-.731,3.927-1.722-1.116-.709.559,2.262,1.466-.509,2.726.981.635,1.514-8.731-.981-.636Zm-49.078-7.029,3.775,7.223.934-.488-3.775-7.224Zm41.166,3.773.984.38,2.626-6.788,2.169.839q1.212.469.8,1.521-.514,1.329-2.828.832l-.248.643,1.1,4.354,1.3.5-1.224-4.592q2.4.108,2.97-1.375.706-1.823-1.464-2.662l-3.243-1.254Zm-32.781-7.409-.751,8.823,1.04-.341.553-7.667,2.6,3.036-1.95.639-.011.9,2.562-.839,1.8,2.109,1.11-.364-5.841-6.663Zm9.019-2.288.968,8.093,5.281-.632-.1-.849-4.233.506-.867-7.244Zm17.843,7.412-2.207-.38,1.094-6.347,2.291.395q1.281.221,1.087,1.344-.233,1.354-2.59,1.266l-.117.68.449.077q1.927.332,1.682,1.753-.215,1.249-1.3,1.249a2.309,2.309,0,0,1-.393-.036m-3.391.283,3.308.57q2.51.433,2.92-1.943a1.737,1.737,0,0,0-1.281-2.1,2.061,2.061,0,0,0,1.832-1.7q.322-1.871-1.969-2.266l-3.427-.59Z" transform="translate(3042.232 -1000)" fill="none"/>
    </clipPath>
    <linearGradient id="linear-gradient-8" x1="3.322" y1="1.061" x2="3.323" y2="1.061" xlink:href="#linear-gradient"/>
  </defs>
  <g id="Group_16" data-name="Group 16" transform="translate(3042.232 -1000)">
    <g id="Group_1" data-name="Group 1" transform="translate(-3010.842 1028.614)">
      <path id="Path_1" data-name="Path 1" d="M-2731.617,1260.619l-.185.492s-1.931-.709-3.96-1.207l-.372-.092-.027-.382a42.129,42.129,0,0,0-.679-4.806l-.119-.576-.515.282h0a42.173,42.173,0,0,0-4.1,2.594l-.309.227-.31-.224c-1.639-1.185-3.395-2.189-3.464-2.228h0l-.5-.288-.135.562a8.127,8.127,0,0,0-.228,1.908,8.308,8.308,0,0,0,2.736,6.141l.842.761-1.125.15a8.575,8.575,0,0,1-1.127.082,8.494,8.494,0,0,1-8.485-8.484,8.494,8.494,0,0,1,8.485-8.484.435.435,0,0,0,.435-.434.435.435,0,0,0-.435-.435,9.377,9.377,0,0,0-9.353,9.353,9.3,9.3,0,0,0,2.132,5.938l.342.415-.424.332a8.437,8.437,0,0,1-5.221,1.8,8.589,8.589,0,0,1-1.127-.082l-1.124-.15.841-.761a8.309,8.309,0,0,0,2.736-6.141,8.141,8.141,0,0,0-.227-1.907l-.135-.562-.5.286c-.074.042-1.821,1.041-3.467,2.229l-.31.224-.308-.227a42.152,42.152,0,0,0-4.1-2.594h0l-.514-.281-.119.576v0a42.1,42.1,0,0,0-.68,4.809l-.027.382-.372.092c-2.028.5-3.957,1.205-3.958,1.206h0l-.537.2.337.462a8.283,8.283,0,0,0,6.672,3.382,8.178,8.178,0,0,0,3.461-.765l.221.477-.261-.456a.425.425,0,0,1,.046-.024l.192-.089.2.07a9.309,9.309,0,0,0,3.067.516,9.3,9.3,0,0,0,5.93-2.123l.333-.274.333.274a9.308,9.308,0,0,0,5.926,2.123,9.312,9.312,0,0,0,3.067-.516l.187-.065.184.075.02.009,0,0h0a8.182,8.182,0,0,0,3.462.765,8.282,8.282,0,0,0,6.671-3.382l.337-.462-.535-.2h0l.185-.492.184-.492,1.832.686-1.153,1.58a9.332,9.332,0,0,1-7.52,3.813,9.234,9.234,0,0,1-3.9-.862l.22-.477-.214.48.133-.3-.123.3-.009,0,.133-.3-.123.3.2-.486.172.5a10.367,10.367,0,0,1-3.412.574,10.356,10.356,0,0,1-6.593-2.362l.333-.406.333.406a10.348,10.348,0,0,1-6.6,2.362,10.367,10.367,0,0,1-3.412-.574l.172-.5.22.477-.192-.416.229.4-.037.018-.192-.416.208.409-.021.01a9.237,9.237,0,0,1-3.9.862,9.331,9.331,0,0,1-7.52-3.813l-1.153-1.58,1.832-.686h0c.041-.015,1.976-.727,4.079-1.244l.125.51-.524-.036a43.441,43.441,0,0,1,.7-4.944v0l.406-1.966,1.766.966,0,0a43.2,43.2,0,0,1,4.22,2.669l-.311.423-.308-.426c1.7-1.228,3.47-2.238,3.562-2.29l1.717-.977.463,1.92a9.251,9.251,0,0,1,.255,2.153,9.36,9.36,0,0,1-3.082,6.921l-.352-.389.069-.52a7.542,7.542,0,0,0,.989.073,7.387,7.387,0,0,0,4.573-1.576l.324.414-.405.334a10.356,10.356,0,0,1-2.372-6.605,10.414,10.414,0,0,1,10.4-10.4,1.485,1.485,0,0,1,1.485,1.485,1.486,1.486,0,0,1-1.485,1.485,7.453,7.453,0,0,0-7.434,7.433,7.453,7.453,0,0,0,7.434,7.433,7.528,7.528,0,0,0,.988-.073l.07.52-.353.389a9.357,9.357,0,0,1-3.082-6.92,9.189,9.189,0,0,1,.256-2.154l.462-1.922,1.717.979h0c.1.055,1.864,1.065,3.563,2.291l-.308.426-.312-.423a43.217,43.217,0,0,1,4.221-2.669h0l1.761-.964.406,1.967a42.876,42.876,0,0,1,.7,4.946l-.524.036.125-.51c2.1.517,4.04,1.229,4.079,1.243h0Z" transform="translate(2773.323 -1245.129)" fill="url(#linear-gradient)"/>
    </g>
    <g id="Group_3" data-name="Group 3" transform="translate(-2993.192 1072.441)">
      <g id="Group_2" data-name="Group 2" transform="translate(0)" clip-path="url(#clip-path)">
        <rect id="Rectangle_2" data-name="Rectangle 2" width="8.421" height="8.421" transform="translate(0)" fill="url(#linear-gradient-2)"/>
      </g>
    </g>
    <g id="Group_5" data-name="Group 5" transform="translate(-2999.537 1063.171)">
      <g id="Group_4" data-name="Group 4" transform="translate(0 0)" clip-path="url(#clip-path-2)">
        <rect id="Rectangle_3" data-name="Rectangle 3" width="8.421" height="8.421" fill="url(#linear-gradient-3)"/>
      </g>
    </g>
    <g id="Group_7" data-name="Group 7" transform="translate(-2986.847 1063.171)">
      <g id="Group_6" data-name="Group 6" transform="translate(0 0)" clip-path="url(#clip-path-3)">
        <rect id="Rectangle_4" data-name="Rectangle 4" width="8.421" height="8.421" fill="url(#linear-gradient-4)"/>
      </g>
    </g>
    <g id="Group_9" data-name="Group 9" transform="translate(-3005.143 1053.135)">
      <g id="Group_8" data-name="Group 8" transform="translate(0 0)" clip-path="url(#clip-path-4)">
        <rect id="Rectangle_5" data-name="Rectangle 5" width="8.421" height="8.421" transform="translate(0 0)" fill="url(#linear-gradient-5)"/>
      </g>
    </g>
    <g id="Group_11" data-name="Group 11" transform="translate(-2981.241 1053.135)">
      <g id="Group_10" data-name="Group 10" transform="translate(0 0)" clip-path="url(#clip-path-5)">
        <rect id="Rectangle_6" data-name="Rectangle 6" width="8.421" height="8.421" fill="url(#linear-gradient-6)"/>
      </g>
    </g>
    <g id="Group_13" data-name="Group 13" transform="translate(-2993.27 1053.135)">
      <g id="Group_12" data-name="Group 12" transform="translate(0 0)" clip-path="url(#clip-path-6)">
        <rect id="Rectangle_7" data-name="Rectangle 7" width="8.421" height="8.421" transform="translate(0 0)" fill="url(#linear-gradient-7)"/>
      </g>
    </g>
    <g id="Group_15" data-name="Group 15" transform="translate(-3042.232 1000)">
      <g id="Group_14" data-name="Group 14" transform="translate(0 0)" clip-path="url(#clip-path-7)">
        <rect id="Rectangle_8" data-name="Rectangle 8" width="106.871" height="110" transform="translate(-0.37)" fill="url(#linear-gradient-8)"/>
      </g>
    </g>
  </g>
</svg>
